<svg id="Ebene_1" data-name="Ebene 1" xmlns="http://www.w3.org/2000/svg" viewBox="0 0 24 24"><defs><style>.cls-1{fill:#fff;}</style></defs><title>190716-GLS-SM-Icons</title><path class="cls-1" d="M12,0A12,12,0,1,0,24,12,12,12,0,0,0,12,0ZM9.68524,17H7.1969V8.9884H9.68524ZM8.43976,7.89551A1.44777,1.44777,0,1,1,9.8808,6.441,1.453,1.453,0,0,1,8.43976,7.89551ZM19.00134,17H16.51562V13.1c0-.92945-.01873-2.1214-1.29376-2.1214-1.29376,0-1.49194,1.00982-1.49194,2.05444V17H11.2442V8.9884h2.3866v1.09284h.03485a2.61468,2.61468,0,0,1,2.35443-1.29376c2.51788,0,2.98126,1.658,2.98126,3.81164Z"/></svg>