<svg id="Ebene_1" data-name="Ebene 1" xmlns="http://www.w3.org/2000/svg" viewBox="0 0 24 24"><defs><style>.cls-1{fill:#fff;}</style></defs><title>190716-GLS-SM-Icons</title><polygon class="cls-1" points="10.556 13.805 14.341 11.836 10.556 9.867 10.556 13.805"/><path class="cls-1" d="M12,0A12,12,0,1,0,24,12,12,12,0,0,0,12,0Zm7,12.514a19.54245,19.54245,0,0,1-.15314,2.275,3.0121,3.0121,0,0,1-.54687,1.4,1.9648,1.9648,0,0,1-1.4.59063c-1.96875.15314-4.9.15314-4.9.15314s-3.65314-.02185-4.76874-.13123a2.31678,2.31678,0,0,1-1.55316-.59063,3.097,3.097,0,0,1-.54687-1.4A22.7492,22.7492,0,0,1,5,12.536v-1.0719a19.54245,19.54245,0,0,1,.15314-2.275,3.0121,3.0121,0,0,1,.54687-1.4,1.9648,1.9648,0,0,1,1.4-.59063C9.06873,7.0672,12,7.0672,12,7.0672s2.93127,0,4.92188.13123a1.99724,1.99724,0,0,1,1.4.59063,3.09682,3.09682,0,0,1,.54687,1.4S19,10.32654,19,11.4422Z"/></svg>